<?xml version="1.0" encoding="UTF-8"?>
<svg id="Layer_1" xmlns="http://www.w3.org/2000/svg" version="1.1" viewBox="0 0 1080 1080">
  <!-- Generator: Adobe Illustrator 29.1.0, SVG Export Plug-In . SVG Version: 2.1.0 Build 142)  -->
  <defs>
    <style>
      .st0 {
        fill: #0157ff;
      }
    </style>
  </defs>
  <path class="st0" d="M559.9,556.3h-106v210h116.3c78.9,0,114.1-54.6,114.1-105.3s-32.5-104.7-124.4-104.7Z"/>
  <path class="st0" d="M641.3,399.3c-2.9-42.2-34.8-84.8-99.5-84.8h-87.8v173.2h112.3c44.9-6.7,77.3-44.8,75-88.4Z"/>
  <path class="st0" d="M1047.9,0H31.1C13.4,0-.9,14.3-.9,32v1016.9c0,17.7,14.3,32,32,32h1016.9c17.7,0,32-14.3,32-32V32c0-17.7-14.3-32-32-32ZM701.9,786.3c-35.1,32.9-82.7,50.6-131.7,48.8h-188V245.7h159.5c46-1.4,90.6,15.2,123.6,46,28.4,27.7,45.3,64.3,47.7,103,2.9,37.1-8.1,73.9-31,103.8-4.1,5.2-8.6,10.2-13.4,14.8,13.9,7.6,26.6,17.1,37.8,28.1,32.1,32.1,49.8,75.1,49.2,119.6.8,47.1-18.7,92.3-53.7,125.3Z"/>
</svg>