<svg width="24" height="24" viewBox="0 0 24 24" fill="none" xmlns="http://www.w3.org/2000/svg">
<path fill-rule="evenodd" clip-rule="evenodd" d="M21.6145 11.8112H22.4448V11.8031C23.2187 11.8031 23.854 11.178 23.854 10.3987V9.8061C23.854 9.32715 23.6178 8.88067 23.2105 8.6209L14.6655 3.12517C14.2012 2.82481 13.5984 2.82481 13.1341 3.12517L4.58911 8.62902C4.18997 8.88879 3.94559 9.33527 3.94559 9.81421V10.4068C3.94559 11.178 4.57282 11.8112 5.35482 11.8112H6.18532V18.7196H5.48531C4.92324 18.7196 4.45078 19.1012 4.3286 19.6451L3.92945 21.4716C3.84799 21.8206 3.9376 22.1859 4.16568 22.4619C4.39376 22.7379 4.72774 22.9003 5.08616 22.9003H22.7136C23.0721 22.9003 23.406 22.7379 23.6341 22.4619C23.8622 22.1859 23.9518 21.8206 23.8704 21.4716L23.4712 19.6451C23.349 19.1012 22.8766 18.7196 22.3145 18.7196H21.6145V11.8112Z" fill="#D5E3FD"/>
<path d="M11.1974 1.73619C11.6852 1.42094 12.319 1.42094 12.8068 1.73619L21.7833 7.50475C22.2112 7.7774 22.4591 8.24621 22.4591 8.74889V9.36998C22.4591 10.1879 21.7916 10.8446 20.9787 10.8446V10.8534H20.1056V18.1034H20.8332C21.4149 18.1034 21.9195 18.512 22.048 19.0741L22.4679 20.9911C22.5535 21.3574 22.4682 21.7414 22.2287 22.0311C21.9891 22.3292 21.638 22.4997 21.2531 22.4999L21.2697 22.4911H2.74233C2.36598 22.4909 2.01505 22.3207 1.77554 22.0311C1.53594 21.7414 1.45048 21.3574 1.52749 20.9911L1.94741 19.0741C2.07593 18.5035 2.57194 18.1034 3.16226 18.1034H3.89858V10.8534H3.02554C2.20402 10.8534 1.54507 10.1882 1.54507 9.37877V8.7567C1.54515 8.2541 1.8016 7.78516 2.22085 7.51256L11.1974 1.73619ZM2.89663 21.1278H21.1076L20.7394 19.4667H3.2648L2.89663 21.1278ZM5.26772 10.8534V18.1034H8.8439V10.8534H5.26772ZM10.213 10.8534V18.1034H13.7902V10.8534H10.213ZM15.1593 10.8534V18.1034H18.7365V10.8534H15.1593ZM11.9513 2.88658L2.97378 8.65514H2.96597C2.96417 8.65724 2.9144 8.71489 2.91421 8.7567V9.37877C2.91421 9.43841 2.96563 9.4901 3.02554 9.4901H4.57437C4.57714 9.49006 4.58037 9.48912 4.58315 9.48912C4.58609 9.48912 4.58902 9.49006 4.59194 9.4901H9.51968C9.52261 9.49006 9.52553 9.48912 9.52847 9.48912C9.53125 9.48912 9.53448 9.49006 9.53726 9.4901H14.466C14.4689 9.49006 14.4718 9.48912 14.4748 9.48912C14.4776 9.48912 14.4807 9.49006 14.4835 9.4901H19.4123C19.4152 9.49006 19.4181 9.48912 19.421 9.48912C19.4239 9.48912 19.427 9.49006 19.4298 9.4901H20.9875C21.0474 9.4901 21.0988 9.43841 21.0988 9.37877V8.7567C21.0977 8.75186 21.0807 8.68019 21.048 8.65514L12.0705 2.88658C12.0654 2.88512 11.9846 2.86208 11.9513 2.88658ZM12.0021 6.15025C12.3785 6.15043 12.6867 6.44833 12.6867 6.82311C12.6866 7.21488 12.3785 7.51336 12.0021 7.51354V7.52135C11.6256 7.52135 11.3175 7.2146 11.3175 6.83971C11.3177 6.46498 11.6257 6.15025 12.0021 6.15025Z" fill="#151515"/>
</svg>
