<svg width="24" height="24" viewBox="0 0 24 24" fill="none" xmlns="http://www.w3.org/2000/svg">
<path d="M5.62517 23.0414C6.68767 23.0414 7.5501 22.1794 7.5501 21.1173V18.9242C7.5501 17.8621 6.68767 17 5.62517 17C4.56266 17 3.70024 17.8621 3.70024 18.9242V21.1173C3.70024 22.1794 4.56266 23.0414 5.62517 23.0414Z" fill="#D5E3FD"/>
<path d="M13.9252 23.0044C14.9877 23.0044 15.8501 22.1423 15.8501 21.0802V15.6043C15.8501 14.5423 14.9877 13.6802 13.9252 13.6802C12.8627 13.6802 12.0002 14.5423 12.0002 15.6043V21.0802C12.0002 22.1423 12.8627 23.0044 13.9252 23.0044Z" fill="#D5E3FD"/>
<path d="M21.9252 22.9933C22.9877 22.9933 23.8501 22.1312 23.8501 21.0691V7.92416C23.8501 6.86208 22.9877 6 21.9252 6C20.8627 6 20.0002 6.86208 20.0002 7.92416V21.076C20.0002 22.1381 20.8627 23.0002 21.9252 23.0002V22.9933Z" fill="#D5E3FD"/>
<path d="M20.122 1.5C21.4343 1.5 22.4999 2.56499 22.4999 3.87695V20.123C22.4999 21.435 21.4343 22.5 20.122 22.5V22.4912C18.8098 22.491 17.745 21.4261 17.745 20.1143V3.87695C17.745 2.56513 18.8098 1.50024 20.122 1.5ZM3.87977 15.0283C5.19192 15.0285 6.25668 16.0935 6.25673 17.4053V20.1143C6.25673 21.4261 5.19195 22.491 3.87977 22.4912C2.56741 22.4912 1.50184 21.4262 1.50184 20.1143V17.4053C1.50189 16.0933 2.56744 15.0283 3.87977 15.0283ZM12.0009 10.9736C13.3132 10.9736 14.3788 12.0386 14.3788 13.3506V20.1143C14.3788 21.4262 13.3132 22.4912 12.0009 22.4912C10.6885 22.4912 9.62294 21.4262 9.62294 20.1143V13.3506C9.62294 12.0386 10.6885 10.9736 12.0009 10.9736ZM3.87977 16.4004C3.32585 16.4004 2.86513 16.8518 2.86513 17.4141V20.123C2.86515 20.6768 3.31734 21.1367 3.87977 21.1367C4.44201 21.1365 4.89342 20.6852 4.89345 20.123V17.4141C4.89345 16.8604 4.44203 16.4006 3.87977 16.4004ZM20.122 2.86328C19.5682 2.86352 19.1083 3.31483 19.1083 3.87695V20.123C19.1083 20.6767 19.5597 21.1365 20.122 21.1367C20.6844 21.1367 21.1366 20.6853 21.1366 20.123V3.87695C21.1366 3.3232 20.6844 2.86328 20.122 2.86328ZM12.0009 12.3369C11.447 12.3369 10.9872 12.7883 10.9872 13.3506V20.1143C10.9872 20.668 11.4384 21.1289 12.0009 21.1289C12.5633 21.1289 13.0145 20.6765 13.0145 20.1143V13.3506C13.0145 12.7968 12.5633 12.3369 12.0009 12.3369ZM11.0126 1.5C11.0975 1.50002 11.1741 1.51689 11.2421 1.55078C11.3272 1.58482 11.4044 1.63605 11.4725 1.7041C11.5407 1.77226 11.5918 1.84938 11.6259 1.93457C11.6514 2.00257 11.6681 2.08753 11.6766 2.16406V6.92676C11.6766 7.30161 11.37 7.6084 10.995 7.6084C10.6202 7.6082 10.3134 7.30148 10.3134 6.92676V3.83398L2.66981 11.4678C2.53346 11.6041 2.36244 11.6631 2.18348 11.6631C2.0132 11.663 1.83439 11.5954 1.69813 11.4678C1.43396 11.2037 1.43396 10.769 1.69813 10.5049L9.34169 2.86328H6.24891C5.87399 2.86328 5.56733 2.55644 5.56727 2.18164C5.56727 1.80679 5.87395 1.5 6.24891 1.5H11.0126Z" fill="#151515"/>
</svg>
