<svg width="24" height="24" viewBox="0 0 24 24" fill="none" xmlns="http://www.w3.org/2000/svg">
<path fill-rule="evenodd" clip-rule="evenodd" d="M17.8557 16.6379C18.7384 16.3178 19.3701 15.4757 19.3701 14.4886V13.7237C19.3701 13.4407 19.4848 13.173 19.6837 12.9741L20.2191 12.431C20.6628 11.995 20.8999 11.4213 20.8999 10.8094C20.8999 10.1974 20.6628 9.6161 20.2268 9.1801L19.6913 8.64465C19.4925 8.44578 19.3854 8.17806 19.3854 7.89504V7.13012C19.3854 5.86036 18.3527 4.82772 17.0906 4.82772H16.3181C16.0274 4.82772 15.7597 4.71299 15.5684 4.52176L15.0253 3.97102C14.1304 3.07607 12.6771 3.07607 11.7821 3.97102L11.2467 4.50646C11.0478 4.70534 10.7877 4.81243 10.497 4.81243H9.72448C8.50062 4.81243 7.49093 5.78387 7.43738 7.00773C7.42208 7.04598 7.42209 7.09188 7.42209 7.13012V7.88739C7.42209 8.17041 7.30735 8.43813 7.10847 8.63701L6.63422 9.1189C6.62275 9.13037 6.61128 9.13993 6.59981 9.14949C6.58834 9.15905 6.57685 9.16862 6.56538 9.1801C6.13703 9.6161 5.8999 10.1821 5.8999 10.7941C5.8999 11.406 6.14468 11.9873 6.58068 12.4233L7.11612 12.9588C7.315 13.1577 7.42209 13.4254 7.42209 13.7084V14.4733C7.42209 15.4761 8.07402 16.3341 8.97499 16.6443V21.0209C8.97499 21.5028 9.21977 21.9388 9.62517 22.1912C9.85465 22.3289 10.0994 22.3977 10.3518 22.3977H10.3595C10.5737 22.3977 10.7802 22.3518 10.9791 22.2524L13.4574 21.0132C13.5033 20.9903 13.5492 20.9903 13.5951 21.0132L15.8363 22.1988C16.2646 22.4283 16.7695 22.413 17.1902 22.1606C17.6032 21.9082 17.8557 21.4722 17.8557 20.9826V16.6379ZM13.4113 8.33856C12.7611 8.33856 12.1492 8.59098 11.6826 9.05758C10.7264 10.0137 10.7264 11.5589 11.6826 12.515C12.6081 13.4405 14.2145 13.4405 15.14 12.515C15.6066 12.0484 15.859 11.4365 15.859 10.7863C15.859 10.1361 15.6066 9.52418 15.14 9.05758C14.6734 8.59098 14.0615 8.33856 13.4113 8.33856Z" fill="#D5E3FD"/>
<path d="M10.2207 2.23806C11.2048 1.25398 12.803 1.25398 13.7871 2.23806L14.3848 2.84353C14.595 3.05366 14.8895 3.17947 15.209 3.17947H16.0586C17.4462 3.1797 18.5811 4.31562 18.5811 5.71169V6.55252C18.5811 6.86369 18.6993 7.15806 18.918 7.37673L19.5068 7.9656C19.9862 8.44502 20.2471 9.08473 20.2471 9.75759C20.247 10.4303 19.9858 11.0615 19.498 11.5408L18.9092 12.1375C18.6906 12.3561 18.5645 12.6506 18.5645 12.9617V13.8025C18.5645 14.8875 17.8695 15.8106 16.8994 16.1629V20.9441C16.8993 21.4822 16.6219 21.9615 16.168 22.239C15.7054 22.5166 15.1497 22.5334 14.6787 22.281L12.2148 20.9773C12.1645 20.9521 12.1138 20.9522 12.0635 20.9773L9.33789 22.3396C9.11921 22.449 8.89176 22.4998 8.65625 22.4998H8.64844C8.37092 22.4998 8.10191 22.4236 7.84961 22.2722C7.40393 21.9947 7.13488 21.5159 7.13477 20.9861V16.1697C6.1444 15.8284 5.42676 14.8884 5.42676 13.7859V12.9451C5.42676 12.6339 5.30853 12.3396 5.08984 12.1209L4.50195 11.532C4.02253 11.0526 3.75293 10.4129 3.75293 9.74002C3.75303 9.06734 4.01352 8.44492 4.48438 7.9656C4.50961 7.94037 4.53531 7.92345 4.56055 7.89822L5.08203 7.36892C5.30061 7.15034 5.42664 6.85574 5.42676 6.5447V5.71169C5.42676 5.66964 5.42654 5.61898 5.44336 5.57693C5.50226 4.23134 6.61245 3.16308 7.95801 3.16287H8.80762C9.12707 3.16287 9.41319 3.0454 9.63184 2.82693L10.2207 2.23806ZM8.48047 20.9861C8.4806 21.0616 8.52246 21.1035 8.56445 21.1287C8.59809 21.1538 8.65654 21.1705 8.72363 21.1287L11.4492 19.7664C11.8866 19.5477 12.408 19.5559 12.8369 19.783L15.3018 21.0867C15.3689 21.1201 15.4277 21.1035 15.4697 21.0867C15.5033 21.0615 15.5535 21.0195 15.5537 20.9441V16.3181H15.1836C14.8641 16.3181 14.578 16.4355 14.3594 16.6541L13.7705 17.2429C13.2743 17.7392 12.6262 17.9832 11.9785 17.9832L11.9961 17.9744C11.3569 17.9744 10.7085 17.7308 10.2207 17.2429L9.62402 16.6375C9.41381 16.4273 9.11931 16.3094 8.7998 16.3094H8.48047V20.9861ZM12.8447 3.17947C12.3906 2.72581 11.6426 2.72575 11.1885 3.17947L10.5996 3.76834C10.1287 4.23924 9.4979 4.50064 8.8252 4.50076H7.97559C7.32795 4.50076 6.79787 5.03026 6.79785 5.6863C6.79785 5.72836 6.79747 5.77082 6.78906 5.80447V6.53591C6.78904 7.20869 6.52852 7.83935 6.05762 8.31033L5.46875 8.90798C5.46616 8.91057 5.42578 8.9503 5.40137 8.96658C5.21635 9.17685 5.11523 9.44625 5.11523 9.7322C5.11529 10.0517 5.24173 10.346 5.46875 10.573L6.05762 11.1619C6.52853 11.6328 6.78899 12.2636 6.78906 12.9363V13.7781C6.78927 14.3654 7.22576 14.8607 7.79004 14.948C7.79574 14.9479 7.80188 14.947 7.80762 14.947C7.85588 14.9471 7.90279 14.9529 7.94824 14.9627C7.95442 14.9628 7.9606 14.9636 7.9668 14.9636H8.81641C9.48913 14.9637 10.1199 15.2243 10.5908 15.6951L11.1885 16.3006C11.6426 16.7547 12.3821 16.7464 12.8447 16.284L13.4336 15.6951C13.9046 15.2241 14.5361 14.9636 15.209 14.9636H16.0537C16.1091 14.9488 16.1666 14.9383 16.2266 14.9383C16.2434 14.9383 16.2598 14.9419 16.2764 14.9431C16.8277 14.8426 17.244 14.3686 17.2441 13.7947V12.9539C17.2441 12.281 17.5046 11.6495 17.9756 11.1785L18.5645 10.5818C18.7915 10.3547 18.918 10.0596 18.918 9.74002C18.9179 9.42057 18.7914 9.12657 18.5645 8.90798L17.9756 8.31912C17.5047 7.84821 17.2443 7.21738 17.2441 6.5447V5.70291C17.244 5.05537 16.714 4.51736 16.0664 4.51736H15.2168C14.5441 4.51729 13.9133 4.25671 13.4424 3.78591L12.8447 3.17947ZM12.0127 5.69509C13.0891 5.69516 14.098 6.11544 14.8633 6.88064C15.6287 7.64604 16.0498 8.6556 16.0498 9.7322C16.0497 10.8087 15.6286 11.8175 14.8633 12.5828C14.0979 13.3481 13.0892 13.7692 12.0127 13.7693C10.9361 13.7693 9.92653 13.3482 9.16113 12.5828C7.5885 11.0099 7.58835 8.45342 9.16113 6.88064C9.92653 6.11524 10.9361 5.69509 12.0127 5.69509ZM12.0127 7.0408C11.2978 7.0408 10.6244 7.31777 10.1113 7.83084C9.06003 8.88213 9.06017 10.5812 10.1113 11.6326C11.1291 12.6503 12.8954 12.6503 13.9131 11.6326C14.4261 11.1196 14.704 10.447 14.7041 9.7322C14.7041 9.01727 14.4262 8.3439 13.9131 7.83084C13.4001 7.31797 12.7274 7.04087 12.0127 7.0408Z" fill="#151515"/>
</svg>
